<svg width="20" height="20" viewBox="0 0 20 20" fill="none" xmlns="http://www.w3.org/2000/svg">
<g clip-path="url(#clip0_401_17108)">
<g clip-path="url(#clip1_401_17108)">
<g clip-path="url(#clip2_401_17108)">
<path d="M17.5 0H2.5C1.11929 0 0 1.11929 0 2.5V17.5C0 18.8807 1.11929 20 2.5 20H17.5C18.8807 20 20 18.8807 20 17.5V2.5C20 1.11929 18.8807 0 17.5 0Z" fill="#E84142"/>
<path d="M12.7668 10.3696C12.9316 10.089 13.3407 10.089 13.5037 10.3696L15.2544 13.3606C15.4192 13.6412 15.2127 13.9906 14.8851 13.9906H11.3836C11.0559 13.9906 10.8512 13.6412 11.0142 13.3606L12.765 10.3696H12.7668Z" fill="white"/>
<path d="M11.7092 8.37761C11.8686 8.09879 11.8686 7.7548 11.7092 7.47417L10.2736 4.97024C10.1124 4.68961 9.7105 4.68961 9.54937 4.97024L4.74428 13.3583C4.58314 13.6389 4.78411 13.9901 5.10637 13.9901H7.976C8.2965 13.9901 8.59162 13.8182 8.75094 13.5394L11.7074 8.37761H11.7092Z" fill="white"/>
</g>
</g>
</g>
<defs>
<clipPath id="clip0_401_17108">
<rect width="20" height="20" fill="white"/>
</clipPath>
<clipPath id="clip1_401_17108">
<rect width="20" height="20" fill="white"/>
</clipPath>
<clipPath id="clip2_401_17108">
<rect width="20" height="20" fill="white"/>
</clipPath>
</defs>
</svg>
