<svg width="52" height="52" viewBox="0 0 52 52" fill="none" xmlns="http://www.w3.org/2000/svg">
<rect width="52" height="52" fill="white"/>
<path d="M17.5596 26.69C17.4996 26.3 17.4696 25.9 17.4696 25.5C17.4696 21.07 21.0696 17.46 25.5096 17.46C27.0996 17.46 28.6396 17.92 29.9596 18.8L30.7896 17.55C29.2196 16.51 27.3996 15.96 25.5096 15.96C20.2496 15.96 15.9696 20.24 15.9696 25.5C15.9696 26.14 16.0496 26.77 16.1796 27.4L14.0996 28.46L14.7796 29.8L36.9096 18.51L36.2296 17.17L17.5596 26.69Z" fill="black"/>
<path d="M36.2198 21.21L14.0898 32.49L14.7698 33.83L33.4298 24.31C33.4998 24.7 33.5298 25.1 33.5298 25.5C33.5298 29.93 29.9298 33.53 25.4998 33.53C23.8898 33.53 22.3398 33.06 21.0098 32.16L20.1698 33.4C21.7498 34.47 23.5898 35.03 25.4998 35.03C30.7598 35.03 35.0298 30.75 35.0298 25.5C35.0298 24.86 34.9498 24.23 34.8198 23.6L36.8998 22.54L36.2198 21.21Z" fill="black"/>
<path d="M25.5 2C12.54 2 2 12.54 2 25.5C2 38.46 12.54 49 25.5 49C38.46 49 49 38.46 49 25.5C49 12.54 38.46 2 25.5 2ZM42.75 25.5C42.75 35.01 35.01 42.75 25.5 42.75C15.99 42.75 8.25 35.01 8.25 25.5C8.25 15.99 15.99 8.25 25.5 8.25C35.01 8.25 42.75 15.99 42.75 25.5Z" fill="black"/>
</svg>
