<svg width="96" height="96" viewBox="0 0 96 96" fill="none" xmlns="http://www.w3.org/2000/svg">
<rect width="96" height="96" rx="48" fill="url(#paint0_linear_847_31012)"/>
<path d="M59.25 53.625H66.75C67.7446 53.625 68.6984 53.2299 69.4016 52.5266C70.1049 51.8234 70.5 50.8696 70.5 49.875V42.375C70.5 41.3804 70.1049 40.4266 69.4016 39.7234C68.6984 39.0201 67.7446 38.625 66.75 38.625H59.25C58.2554 38.625 57.3016 39.0201 56.5984 39.7234C55.8951 40.4266 55.5 41.3804 55.5 42.375V44.25H38.625V36.75H40.5C41.4946 36.75 42.4484 36.3549 43.1516 35.6516C43.8549 34.9484 44.25 33.9946 44.25 33V25.5C44.25 24.5054 43.8549 23.5516 43.1516 22.8483C42.4484 22.1451 41.4946 21.75 40.5 21.75H33C32.0054 21.75 31.0516 22.1451 30.3483 22.8483C29.6451 23.5516 29.25 24.5054 29.25 25.5V33C29.25 33.9946 29.6451 34.9484 30.3483 35.6516C31.0516 36.3549 32.0054 36.75 33 36.75H34.875V63C34.875 64.4918 35.4676 65.9226 36.5225 66.9775C37.5774 68.0324 39.0082 68.625 40.5 68.625H55.5V70.5C55.5 71.4946 55.8951 72.4484 56.5984 73.1516C57.3016 73.8549 58.2554 74.25 59.25 74.25H66.75C67.7446 74.25 68.6984 73.8549 69.4016 73.1516C70.1049 72.4484 70.5 71.4946 70.5 70.5V63C70.5 62.0054 70.1049 61.0516 69.4016 60.3484C68.6984 59.6451 67.7446 59.25 66.75 59.25H59.25C58.2554 59.25 57.3016 59.6451 56.5984 60.3484C55.8951 61.0516 55.5 62.0054 55.5 63V64.875H40.5C40.0027 64.875 39.5258 64.6775 39.1742 64.3258C38.8225 63.9742 38.625 63.4973 38.625 63V48H55.5V49.875C55.5 50.8696 55.8951 51.8234 56.5984 52.5266C57.3016 53.2299 58.2554 53.625 59.25 53.625ZM33 25.5H40.5V33H33V25.5ZM59.25 63H66.75V70.5H59.25V63ZM59.25 42.375H66.75V49.875H59.25V42.375Z" fill="#04131F"/>
<defs>
<linearGradient id="paint0_linear_847_31012" x1="48" y1="0" x2="48" y2="96" gradientUnits="userSpaceOnUse">
<stop stop-color="#4DFFDF"/>
<stop offset="1" stop-color="#4DA1FF"/>
</linearGradient>
</defs>
</svg>
