<svg width="20" height="20" viewBox="0 0 20 20" fill="none" xmlns="http://www.w3.org/2000/svg">
<g clip-path="url(#clip0_401_17099)">
<g clip-path="url(#clip1_401_17099)">
<path d="M17.5 0H2.5C1.11929 0 0 1.11929 0 2.5V17.5C0 18.8807 1.11929 20 2.5 20H17.5C18.8807 20 20 18.8807 20 17.5V2.5C20 1.11929 18.8807 0 17.5 0Z" fill="#836EF9"/>
<path d="M10 3.75C8.19513 3.75 3.75 8.195 3.75 9.99994C3.75 11.8049 8.19513 16.25 10 16.25C11.8048 16.25 16.25 11.8048 16.25 9.99994C16.25 8.19506 11.8049 3.75 10 3.75ZM9.026 13.5739C8.26494 13.3665 6.21868 9.78706 6.42613 9.026C6.63356 8.26487 10.2129 6.21866 10.9739 6.42606C11.7351 6.6335 13.7814 10.2128 13.5739 10.9739C13.3665 11.7351 9.78713 13.7814 9.026 13.5739Z" fill="#FEFEFE"/>
</g>
</g>
<defs>
<clipPath id="clip0_401_17099">
<rect width="20" height="20" fill="white"/>
</clipPath>
<clipPath id="clip1_401_17099">
<rect width="20" height="20" fill="white"/>
</clipPath>
</defs>
</svg>
