<svg width="140" height="140" viewBox="0 0 140 140" fill="none" xmlns="http://www.w3.org/2000/svg">
<g clipPath="url(#clip0_978_8992)">
<path opacity="0.2" d="M140 69.9996C140 108.66 108.66 140 70.0004 140C31.3401 140 0 108.66 0 69.9996C0 31.3399 31.3401 0 70.0004 0C108.66 0 140 31.3399 140 69.9996Z" fill="#F0B90B"/>
<g clipPath="url(#clip1_978_8992)">
<path d="M69.6225 26.1841L80.3843 37.2052L53.2853 64.3042L42.5234 53.5424L69.6225 26.1841Z" fill="#F0B90B"/>
<path d="M85.9597 42.521L96.7215 53.5421L53.2853 96.9783L42.5234 86.2165L85.9597 42.521Z" fill="#F0B90B"/>
<path d="M36.9435 58.8579L47.7053 69.8791L36.9435 80.6409L26.1816 69.8791L36.9435 58.8579Z" fill="#F0B90B"/>
<path d="M102.292 58.8579L113.054 69.879L69.6173 113.315L58.8555 102.553L102.292 58.8579Z" fill="#F0B90B"/>
</g>
</g>
<defs>
<clipPath id="clip0_978_8992">
<rect width="140" height="140" fill="white"/>
</clipPath>
<clipPath id="clip1_978_8992">
<rect width="87.5" height="87.5" fill="white" transform="translate(26 26)"/>
</clipPath>
</defs>
</svg>
