<svg width="10" height="10" viewBox="0 0 10 10" fill="none" xmlns="http://www.w3.org/2000/svg">
<path fill-rule="evenodd" clip-rule="evenodd" d="M0.345089 1.67801C0.298629 2.27887 0.757763 3.00645 1.67604 4.46165L5.17094 10L8.66584 4.46165C9.58414 3.00645 10.0433 2.27887 9.99679 1.67801C9.95634 1.1543 9.69129 0.6737 9.27004 0.35996C8.78674 -2.98023e-08 7.92644 0 6.20579 0H4.13609C2.41545 0 1.55514 -2.98023e-08 1.07183 0.35996C0.650573 0.6737 0.385583 1.1543 0.345089 1.67801ZM2.86352 10H4.37534L1.56302 5.625L0.937453 6.5625C0.231359 7.65795 -0.0293712 8.2793 0.00259381 8.73235C0.0304488 9.12715 0.228449 9.49035 0.545173 9.7277C0.908623 10 1.56026 10 2.86352 10Z" fill="url(#paint0_linear_2341_3323)"/>
<defs>
<linearGradient id="paint0_linear_2341_3323" x1="11.0222" y1="14.9091" x2="-0.174451" y2="-0.192964" gradientUnits="userSpaceOnUse">
<stop stop-color="#17B0F3"/>
<stop offset="0.239482" stop-color="#3B7FE5"/>
<stop offset="0.458333" stop-color="#6749D5"/>
<stop offset="0.687502" stop-color="#DC40A4"/>
<stop offset="1" stop-color="#FD7842"/>
</linearGradient>
</defs>
</svg>
