<svg width="12" height="12" viewBox="0 0 12 12" fill="none" xmlns="http://www.w3.org/2000/svg">
<g clipPath="url(#clip0_1428_26162)">
<path d="M11.9892 5.99749C11.9892 9.29481 9.31641 11.9676 6.0191 11.9676C2.72191 11.9676 0.0489502 9.29481 0.0489502 5.99749C0.0489502 2.70024 2.72191 0.0273438 6.0191 0.0273438C9.31641 0.0273438 11.9892 2.70024 11.9892 5.99749Z" fill="#1BA27A"/>
<path d="M8.82107 3.03809H3.16794V4.40286H5.31212V6.40883H6.67689V4.40286H8.82107V3.03809Z" fill="white"/>
<path d="M6.00745 6.62206C4.23372 6.62206 2.79569 6.34134 2.79569 5.99502C2.79569 5.64875 4.23366 5.36797 6.00745 5.36797C7.78118 5.36797 9.21915 5.64875 9.21915 5.99502C9.21915 6.34134 7.78118 6.62206 6.00745 6.62206ZM9.61372 6.09955C9.61372 5.65299 7.99915 5.29102 6.00745 5.29102C4.01581 5.29102 2.40112 5.65299 2.40112 6.09955C2.40112 6.49281 3.65312 6.82045 5.31217 6.89305V9.77269H6.67682V6.89418C8.34865 6.82385 9.61372 6.49484 9.61372 6.09955Z" fill="white"/>
</g>
<defs>
<clipPath id="clip0_1428_26162">
<rect width="12" height="12" fill="white"/>
</clipPath>
</defs>
</svg>
