<svg width="32" height="32" viewBox="0 0 32 32" fill="none" xmlns="http://www.w3.org/2000/svg">
<rect width="32" height="32" rx="16" fill="#101115"/>
<path d="M18.375 9.29159V12.4583H17.125V9.29159C17.125 9.06659 16.925 8.95825 16.7917 8.95825C16.75 8.95825 16.7083 8.96659 16.6667 8.98325L10.0583 11.4749C9.61666 11.6416 9.33333 12.0583 9.33333 12.5333V13.0916C8.57499 13.6583 8.08333 14.5666 8.08333 15.5916V12.5333C8.08333 11.5416 8.69166 10.6583 9.61666 10.3083L16.2333 7.80825C16.4167 7.74159 16.6083 7.70825 16.7917 7.70825C17.625 7.70825 18.375 8.38325 18.375 9.29159Z" fill="url(#paint0_linear_203_9502)"/>
<path d="M23.9167 18.0834V18.9167C23.9167 19.1417 23.7417 19.3251 23.5083 19.3334H22.2917C21.85 19.3334 21.45 19.0084 21.4167 18.5751C21.3917 18.3167 21.4917 18.0751 21.6583 17.9084C21.8083 17.7501 22.0167 17.6667 22.2417 17.6667H23.5C23.7417 17.6751 23.9167 17.8584 23.9167 18.0834Z" fill="url(#paint1_linear_203_9502)"/>
<path d="M22.2333 16.7916H23.0833C23.5417 16.7916 23.9167 16.4166 23.9167 15.9583V15.5916C23.9167 13.8666 22.5083 12.4583 20.7833 12.4583H11.2167C10.5083 12.4583 9.85833 12.6916 9.33333 13.0916C8.57499 13.6583 8.08333 14.5666 8.08333 15.5916V21.1999C8.08333 22.9249 9.49166 24.3333 11.2167 24.3333H20.7833C22.5083 24.3333 23.9167 22.9249 23.9167 21.1999V21.0416C23.9167 20.5833 23.5417 20.2083 23.0833 20.2083H22.3583C21.5583 20.2083 20.7917 19.7166 20.5833 18.9416C20.4083 18.3083 20.6167 17.6999 21.0333 17.2916C21.3417 16.9749 21.7667 16.7916 22.2333 16.7916ZM17.6667 16.6249H11.8333C11.4917 16.6249 11.2083 16.3416 11.2083 15.9999C11.2083 15.6583 11.4917 15.3749 11.8333 15.3749H17.6667C18.0083 15.3749 18.2917 15.6583 18.2917 15.9999C18.2917 16.3416 18.0083 16.6249 17.6667 16.6249Z" fill="url(#paint2_linear_203_9502)"/>
<defs>
<linearGradient id="paint0_linear_203_9502" x1="8.08333" y1="7.70825" x2="24.2643" y2="17.7953" gradientUnits="userSpaceOnUse">
<stop stop-color="#3AF485"/>
<stop offset="1" stop-color="#09BDBB"/>
</linearGradient>
<linearGradient id="paint1_linear_203_9502" x1="21.4129" y1="17.6667" x2="25.022" y2="20.2558" gradientUnits="userSpaceOnUse">
<stop stop-color="#3AF485"/>
<stop offset="1" stop-color="#09BDBB"/>
</linearGradient>
<linearGradient id="paint2_linear_203_9502" x1="8.08333" y1="12.4583" x2="32.6804" y2="28.1187" gradientUnits="userSpaceOnUse">
<stop stop-color="#3AF485"/>
<stop offset="1" stop-color="#09BDBB"/>
</linearGradient>
</defs>
</svg>
